<svg width="21" height="20" viewBox="0 0 21 20" fill="none" xmlns="http://www.w3.org/2000/svg">
<path d="M10.325 16C10.675 16 10.971 15.879 11.213 15.637C11.455 15.395 11.5757 15.0993 11.575 14.75C11.5743 14.4007 11.4537 14.1047 11.213 13.862C10.9723 13.6193 10.6763 13.4987 10.325 13.5C9.97367 13.5013 9.678 13.6223 9.438 13.863C9.198 14.1037 9.077 14.3993 9.075 14.75C9.073 15.1007 9.194 15.3967 9.438 15.638C9.682 15.8793 9.97767 16 10.325 16ZM9.425 12.15H11.275C11.275 11.6 11.3377 11.1667 11.463 10.85C11.5883 10.5333 11.9423 10.1 12.525 9.55C12.9583 9.11667 13.3 8.70401 13.55 8.31201C13.8 7.92 13.925 7.44934 13.925 6.9C13.925 5.96667 13.5833 5.25001 12.9 4.75001C12.2167 4.25001 11.4083 4.00001 10.475 4.00001C9.525 4.00001 8.75433 4.25001 8.163 4.75001C7.57167 5.25001 7.159 5.85001 6.925 6.55001L8.575 7.20001C8.65833 6.9 8.846 6.57501 9.138 6.22501C9.43 5.87501 9.87567 5.70001 10.475 5.70001C11.0083 5.70001 11.4083 5.846 11.675 6.138C11.9417 6.43 12.075 6.75067 12.075 7.10001C12.075 7.43334 11.975 7.74601 11.775 8.038C11.575 8.33 11.325 8.60067 11.025 8.85001C10.2917 9.5 9.84167 9.99167 9.675 10.325C9.50833 10.6583 9.425 11.2667 9.425 12.15ZM10.375 20C8.99167 20 7.69167 19.7377 6.475 19.213C5.25834 18.6883 4.2 17.9757 3.3 17.075C2.4 16.1743 1.68767 15.116 1.163 13.9C0.638335 12.684 0.375668 11.384 0.375001 10C0.374335 8.616 0.637001 7.31601 1.163 6.10001C1.689 4.88401 2.40133 3.82567 3.3 2.92501C4.19867 2.02434 5.257 1.31201 6.475 0.788005C7.693 0.264005 8.993 0.00133838 10.375 5.0505e-06C11.757 -0.00132828 13.057 0.261339 14.275 0.788005C15.493 1.31467 16.5513 2.02701 17.45 2.92501C18.3487 3.82301 19.0613 4.88134 19.588 6.10001C20.1147 7.31867 20.377 8.61867 20.375 10C20.373 11.3813 20.1103 12.6813 19.587 13.9C19.0637 15.1187 18.3513 16.177 17.45 17.075C16.5487 17.973 15.4903 18.6857 14.275 19.213C13.0597 19.7403 11.7597 20.0027 10.375 20ZM10.375 18C12.6083 18 14.5 17.225 16.05 15.675C17.6 14.125 18.375 12.2333 18.375 10C18.375 7.76667 17.6 5.875 16.05 4.32501C14.5 2.77501 12.6083 2.00001 10.375 2.00001C8.14167 2.00001 6.25 2.77501 4.7 4.32501C3.15 5.875 2.375 7.76667 2.375 10C2.375 12.2333 3.15 14.125 4.7 15.675C6.25 17.225 8.14167 18 10.375 18Z" fill="#4B5563"/>
</svg>
