<svg width="17" height="21" viewBox="0 0 17 21" fill="none" xmlns="http://www.w3.org/2000/svg">
<path d="M8.125 0C8.37988 0.000282707 8.62503 0.0978791 8.81037 0.272848C8.9957 0.447818 9.10723 0.686953 9.12217 0.941395C9.13711 1.19584 9.05433 1.44638 8.89074 1.64183C8.72715 1.83729 8.4951 1.9629 8.242 1.993L8.125 2H3.125C2.88007 2.00003 2.64366 2.08996 2.46063 2.25272C2.27759 2.41547 2.16066 2.63975 2.132 2.883L2.125 3V15C2.12503 15.2449 2.21496 15.4813 2.37772 15.6644C2.54047 15.8474 2.76475 15.9643 3.008 15.993L3.125 16H7.625C7.87988 16.0003 8.12503 16.0979 8.31037 16.2728C8.4957 16.4478 8.60723 16.687 8.62217 16.9414C8.63711 17.1958 8.55433 17.4464 8.39074 17.6418C8.22715 17.8373 7.9951 17.9629 7.742 17.993L7.625 18H3.125C2.35979 18 1.62349 17.7077 1.06674 17.1827C0.509993 16.6578 0.174892 15.9399 0.13 15.176L0.125 15V3C0.124957 2.23479 0.417325 1.49849 0.942284 0.941739C1.46724 0.384993 2.18511 0.0498925 2.949 0.00500011L3.125 0H8.125ZM13.832 5.464L16.66 8.293C16.8475 8.48053 16.9528 8.73484 16.9528 9C16.9528 9.26516 16.8475 9.51947 16.66 9.707L13.832 12.536C13.6444 12.7235 13.3899 12.8288 13.1246 12.8287C12.8594 12.8286 12.605 12.7231 12.4175 12.5355C12.23 12.3479 12.1247 12.0934 12.1248 11.8281C12.1249 11.5629 12.2304 11.3085 12.418 11.121L13.539 10H8.125C7.85978 10 7.60543 9.89464 7.41789 9.70711C7.23036 9.51957 7.125 9.26522 7.125 9C7.125 8.73478 7.23036 8.48043 7.41789 8.29289C7.60543 8.10536 7.85978 8 8.125 8H13.539L12.418 6.879C12.2304 6.69149 12.1249 6.43712 12.1248 6.17185C12.1247 5.90658 12.23 5.65214 12.4175 5.4645C12.605 5.27686 12.8594 5.17139 13.1246 5.1713C13.3899 5.1712 13.6444 5.27649 13.832 5.464Z" fill="#4B5563"/>
</svg>
