<svg width="21" height="20" viewBox="0 0 21 20" fill="none" xmlns="http://www.w3.org/2000/svg">
<path fill-rule="evenodd" clip-rule="evenodd" d="M12.109 0.542C12.196 0.711 12.218 0.928 12.261 1.362C12.343 2.182 12.384 2.592 12.556 2.818C12.6632 2.95832 12.8056 3.06777 12.9687 3.13522C13.1319 3.20266 13.31 3.2257 13.485 3.202C13.765 3.165 14.085 2.904 14.723 2.382C15.06 2.105 15.229 1.967 15.41 1.909C15.6405 1.83534 15.8899 1.84777 16.112 1.944C16.287 2.02 16.442 2.174 16.749 2.482L17.643 3.376C17.951 3.684 18.105 3.838 18.181 4.013C18.2772 4.23506 18.2897 4.48447 18.216 4.715C18.158 4.896 18.02 5.065 17.744 5.402C17.221 6.041 16.96 6.36 16.922 6.641C16.8986 6.8159 16.9219 6.99387 16.9895 7.15686C17.0571 7.31985 17.1667 7.46204 17.307 7.569C17.532 7.741 17.943 7.782 18.764 7.864C19.197 7.907 19.414 7.929 19.584 8.016C19.7985 8.1272 19.9654 8.31227 20.054 8.537C20.125 8.714 20.125 8.932 20.125 9.368V10.632C20.125 11.068 20.125 11.286 20.055 11.462C19.9661 11.6874 19.7984 11.8729 19.583 11.984C19.414 12.071 19.197 12.093 18.763 12.136C17.943 12.218 17.533 12.259 17.307 12.431C17.1667 12.5382 17.0572 12.6806 16.9898 12.8437C16.9223 13.0069 16.8993 13.185 16.923 13.36C16.961 13.64 17.222 13.96 17.744 14.598C18.02 14.935 18.158 15.103 18.216 15.285C18.2897 15.5155 18.2772 15.7649 18.181 15.987C18.105 16.162 17.951 16.316 17.643 16.624L16.749 17.517C16.441 17.826 16.287 17.98 16.112 18.055C15.8899 18.1512 15.6405 18.1637 15.41 18.09C15.229 18.032 15.06 17.894 14.723 17.618C14.084 17.096 13.765 16.835 13.485 16.798C13.31 16.7743 13.1319 16.7973 12.9687 16.8648C12.8056 16.9322 12.6632 17.0417 12.556 17.182C12.384 17.407 12.343 17.817 12.261 18.638C12.218 19.072 12.196 19.289 12.109 19.458C11.9982 19.6732 11.8131 19.8409 11.588 19.93C11.411 20 11.193 20 10.757 20H9.493C9.057 20 8.839 20 8.663 19.93C8.43756 19.8411 8.25206 19.6734 8.141 19.458C8.054 19.289 8.032 19.072 7.989 18.638C7.907 17.818 7.866 17.408 7.694 17.182C7.58692 17.0418 7.44468 16.9325 7.2817 16.8651C7.11872 16.7976 6.94081 16.7745 6.766 16.798C6.485 16.835 6.166 17.096 5.527 17.618C5.19 17.895 5.021 18.033 4.84 18.091C4.60947 18.1647 4.36006 18.1522 4.138 18.056C3.963 17.98 3.808 17.826 3.501 17.518L2.607 16.624C2.299 16.316 2.145 16.162 2.069 15.987C1.97277 15.7649 1.96034 15.5155 2.034 15.285C2.092 15.104 2.23 14.935 2.506 14.598C3.029 13.959 3.29 13.64 3.327 13.359C3.35052 13.1842 3.32739 13.0063 3.25995 12.8433C3.19251 12.6803 3.08316 12.5381 2.943 12.431C2.718 12.259 2.307 12.218 1.486 12.136C1.053 12.093 0.836 12.071 0.666 11.984C0.451547 11.8728 0.284596 11.6877 0.196 11.463C0.125 11.286 0.125 11.068 0.125 10.632V9.368C0.125 8.932 0.125 8.714 0.195 8.538C0.283887 8.31256 0.451615 8.12706 0.667 8.016C0.836 7.929 1.053 7.907 1.487 7.864C2.307 7.782 2.718 7.741 2.943 7.569C3.08334 7.46204 3.19288 7.31985 3.2605 7.15686C3.32812 6.99387 3.35141 6.8159 3.328 6.641C3.29 6.36 3.028 6.041 2.506 5.401C2.23 5.064 2.092 4.896 2.034 4.714C1.96034 4.48347 1.97277 4.23406 2.069 4.012C2.145 3.838 2.299 3.683 2.607 3.375L3.501 2.482C3.809 2.174 3.963 2.019 4.138 1.944C4.36006 1.84777 4.60947 1.83534 4.84 1.909C5.021 1.967 5.19 2.105 5.527 2.381C6.166 2.903 6.485 3.164 6.765 3.202C6.94021 3.22578 7.1186 3.20267 7.28197 3.13504C7.44534 3.06741 7.58786 2.95766 7.695 2.817C7.865 2.592 7.907 2.182 7.989 1.361C8.032 0.928 8.054 0.711 8.141 0.541C8.25201 0.326171 8.4371 0.158843 8.662 0.0699999C8.839 -6.70552e-08 9.057 0 9.493 0H10.757C11.193 0 11.411 -6.70552e-08 11.587 0.0699999C11.8124 0.158887 11.9979 0.326615 12.109 0.542ZM10.125 14C11.1859 14 12.2033 13.5786 12.9534 12.8284C13.7036 12.0783 14.125 11.0609 14.125 10C14.125 8.93913 13.7036 7.92172 12.9534 7.17157C12.2033 6.42143 11.1859 6 10.125 6C9.06413 6 8.04672 6.42143 7.29657 7.17157C6.54643 7.92172 6.125 8.93913 6.125 10C6.125 11.0609 6.54643 12.0783 7.29657 12.8284C8.04672 13.5786 9.06413 14 10.125 14Z" fill="#4B5563"/>
</svg>
