<svg width="23" height="22" viewBox="0 0 23 22" fill="none" xmlns="http://www.w3.org/2000/svg">
<path fill-rule="evenodd" clip-rule="evenodd" d="M20.875 11C20.875 8.54675 19.9004 6.19397 18.1657 4.45926C16.431 2.72455 14.0783 1.75 11.625 1.75C9.17175 1.75 6.81897 2.72455 5.08426 4.45926C3.34955 6.19397 2.375 8.54675 2.375 11C2.375 13.4533 3.34955 15.806 5.08426 17.5407C6.81897 19.2754 9.17175 20.25 11.625 20.25C14.0783 20.25 16.431 19.2754 18.1657 17.5407C19.9004 15.806 20.875 13.4533 20.875 11ZM11.625 0.25C17.562 0.25 22.375 5.063 22.375 11C22.375 16.937 17.562 21.75 11.625 21.75C5.688 21.75 0.874999 16.937 0.875 11C0.875 5.063 5.688 0.249999 11.625 0.25ZM14.065 11L11.595 8.53C11.4625 8.38782 11.3904 8.19978 11.3938 8.00548C11.3973 7.81118 11.476 7.62579 11.6134 7.48838C11.7508 7.35097 11.9362 7.27225 12.1305 7.26882C12.3248 7.2654 12.5128 7.33752 12.655 7.47L15.655 10.47C15.7955 10.6106 15.8743 10.8012 15.8743 11C15.8743 11.1988 15.7955 11.3894 15.655 11.53L12.655 14.53C12.5863 14.6037 12.5035 14.6628 12.4115 14.7038C12.3195 14.7448 12.2202 14.7668 12.1195 14.7686C12.0188 14.7704 11.9188 14.7518 11.8254 14.7141C11.732 14.6764 11.6472 14.6203 11.576 14.549C11.5047 14.4778 11.4486 14.393 11.4109 14.2996C11.3732 14.2062 11.3546 14.1062 11.3564 14.0055C11.3582 13.9048 11.3802 13.8055 11.4212 13.7135C11.4622 13.6215 11.5213 13.5387 11.595 13.47L14.065 11ZM10.065 11L7.595 8.53C7.46252 8.38782 7.3904 8.19978 7.39383 8.00548C7.39725 7.81118 7.47597 7.62579 7.61338 7.48838C7.75079 7.35096 7.93618 7.27225 8.13048 7.26882C8.32478 7.2654 8.51282 7.33752 8.655 7.47L11.655 10.47C11.7954 10.6106 11.8743 10.8012 11.8743 11C11.8743 11.1988 11.7954 11.3894 11.655 11.53L8.655 14.53C8.58634 14.6037 8.50354 14.6628 8.41154 14.7038C8.31954 14.7448 8.22022 14.7668 8.11952 14.7686C8.01882 14.7704 7.91879 14.7518 7.8254 14.7141C7.73201 14.6764 7.64718 14.6203 7.57596 14.549C7.50474 14.4778 7.4486 14.393 7.41088 14.2996C7.37316 14.2062 7.35463 14.1062 7.35641 14.0055C7.35819 13.9048 7.38023 13.8055 7.42122 13.7135C7.46221 13.6215 7.52131 13.5387 7.595 13.47L10.065 11Z" fill="#4B5563"/>
</svg>
