<svg width="24" height="25" viewBox="0 0 24 25" fill="none" xmlns="http://www.w3.org/2000/svg">
<path d="M12.75 17V11H9.75V12.5H11.25V17H9V18.5H15V17H12.75ZM12 6.5C11.7775 6.5 11.56 6.56598 11.375 6.6896C11.19 6.81321 11.0458 6.98891 10.9606 7.19448C10.8755 7.40005 10.8532 7.62625 10.8966 7.84448C10.94 8.06271 11.0472 8.26316 11.2045 8.4205C11.3618 8.57783 11.5623 8.68498 11.7805 8.72838C11.9988 8.77179 12.225 8.74951 12.4305 8.66436C12.6361 8.57922 12.8118 8.43502 12.9354 8.25002C13.059 8.06501 13.125 7.8475 13.125 7.625C13.125 7.32663 13.0065 7.04048 12.7955 6.8295C12.5845 6.61853 12.2984 6.5 12 6.5Z" fill="#2563EB"/>
<path d="M12 23C9.9233 23 7.89323 22.3842 6.16652 21.2304C4.4398 20.0767 3.09399 18.4368 2.29927 16.5182C1.50455 14.5996 1.29661 12.4884 1.70176 10.4516C2.1069 8.41476 3.10693 6.54383 4.57538 5.07538C6.04383 3.60693 7.91476 2.6069 9.95156 2.20176C11.9884 1.79661 14.0996 2.00455 16.0182 2.79927C17.9368 3.59399 19.5767 4.9398 20.7304 6.66652C21.8842 8.39323 22.5 10.4233 22.5 12.5C22.5 15.2848 21.3938 17.9555 19.4246 19.9246C17.4555 21.8938 14.7848 23 12 23ZM12 3.5C10.22 3.5 8.47992 4.02785 6.99987 5.01678C5.51983 6.00571 4.36628 7.41132 3.68509 9.05585C3.0039 10.7004 2.82567 12.51 3.17294 14.2558C3.5202 16.0016 4.37737 17.6053 5.63604 18.864C6.89472 20.1226 8.49836 20.9798 10.2442 21.3271C11.99 21.6743 13.7996 21.4961 15.4442 20.8149C17.0887 20.1337 18.4943 18.9802 19.4832 17.5001C20.4722 16.0201 21 14.28 21 12.5C21 10.1131 20.0518 7.82387 18.364 6.13604C16.6761 4.44822 14.387 3.5 12 3.5Z" fill="#2563EB"/>
</svg>
