<svg width="31" height="31" viewBox="0 0 31 31" fill="none" xmlns="http://www.w3.org/2000/svg">
<path d="M21.9583 12.9167C23.3286 12.9167 24.6428 13.461 25.6117 14.4299C26.5807 15.3989 27.125 16.713 27.125 18.0833V24.5417C27.125 25.2268 26.8528 25.8839 26.3684 26.3684C25.8839 26.8528 25.2268 27.125 24.5417 27.125H6.45833C5.77319 27.125 5.11611 26.8528 4.63164 26.3684C4.14717 25.8839 3.875 25.2268 3.875 24.5417V18.0833C3.875 16.713 4.41934 15.3989 5.38828 14.4299C6.35722 13.461 7.67138 12.9167 9.04167 12.9167V9.04167H11.625V12.9167H14.2083V9.04167H16.7917V12.9167H19.375V9.04167H21.9583V12.9167ZM9.04167 15.5C8.35652 15.5 7.69944 15.7722 7.21497 16.2566C6.7305 16.7411 6.45833 17.3982 6.45833 18.0833V19.375H24.5417V18.0833C24.5417 17.3982 24.2695 16.7411 23.785 16.2566C23.3006 15.7722 22.6435 15.5 21.9583 15.5H9.04167ZM6.45833 21.9583V24.5417H24.5417V21.9583H6.45833ZM9.04167 5.16667C9.38424 5.16667 9.71278 5.03058 9.95501 4.78835C10.1972 4.54611 10.3333 4.21757 10.3333 3.875C10.6759 3.875 11.0044 4.01109 11.2467 4.25332C11.4889 4.49555 11.625 4.8241 11.625 5.16667V6.45833C11.625 6.8009 11.4889 7.12944 11.2467 7.37168C11.0044 7.61391 10.6759 7.75 10.3333 7.75C9.99076 7.75 9.66222 7.61391 9.41999 7.37168C9.17775 7.12944 9.04167 6.8009 9.04167 6.45833V5.16667ZM14.2083 5.16667C14.5509 5.16667 14.8794 5.03058 15.1217 4.78835C15.3639 4.54611 15.5 4.21757 15.5 3.875C15.8426 3.875 16.1711 4.01109 16.4133 4.25332C16.6556 4.49555 16.7917 4.8241 16.7917 5.16667V6.45833C16.7917 6.8009 16.6556 7.12944 16.4133 7.37168C16.1711 7.61391 15.8426 7.75 15.5 7.75C15.1574 7.75 14.8289 7.61391 14.5867 7.37168C14.3444 7.12944 14.2083 6.8009 14.2083 6.45833V5.16667ZM19.375 5.16667C19.7176 5.16667 20.0461 5.03058 20.2883 4.78835C20.5306 4.54611 20.6667 4.21757 20.6667 3.875C21.0092 3.875 21.3378 4.01109 21.58 4.25332C21.8222 4.49555 21.9583 4.8241 21.9583 5.16667V6.45833C21.9583 6.8009 21.8222 7.12944 21.58 7.37168C21.3378 7.61391 21.0092 7.75 20.6667 7.75C20.3241 7.75 19.9956 7.61391 19.7533 7.37168C19.5111 7.12944 19.375 6.8009 19.375 6.45833V5.16667Z" fill="#2563EB"/>
</svg>
