<svg width="31" height="31" viewBox="0 0 31 31" fill="none" xmlns="http://www.w3.org/2000/svg">
<path d="M15.5 28.4166C13.7132 28.4166 12.0341 28.0773 10.4625 27.3988C8.89102 26.7202 7.524 25.8001 6.3615 24.6385C5.199 23.4768 4.2789 22.1098 3.60121 20.5374C2.92351 18.965 2.58424 17.2859 2.58338 15.4999C2.58251 13.714 2.92179 12.0348 3.60121 10.4624C4.28063 8.89003 5.20072 7.52302 6.3615 6.36138C7.52228 5.19974 8.88929 4.27964 10.4625 3.60109C12.0358 2.92253 13.715 2.58325 15.5 2.58325C17.2851 2.58325 18.9643 2.92253 20.5375 3.60109C22.1108 4.27964 23.4778 5.19974 24.6386 6.36138C25.7994 7.52302 26.7199 8.89003 27.4002 10.4624C28.0804 12.0348 28.4193 13.714 28.4167 15.4999C28.4141 17.2859 28.0749 18.965 27.3989 20.5374C26.7229 22.1098 25.8028 23.4768 24.6386 24.6385C23.4744 25.8001 22.1073 26.7206 20.5375 27.4C18.9677 28.0795 17.2886 28.4183 15.5 28.4166ZM15.5 25.8333C18.3848 25.8333 20.8282 24.8322 22.8302 22.8301C24.8323 20.828 25.8334 18.3846 25.8334 15.4999C25.8334 15.3492 25.8282 15.1929 25.8179 15.031C25.8075 14.8692 25.8019 14.7348 25.8011 14.628C25.6934 15.2523 25.4028 15.769 24.9292 16.178C24.4556 16.5871 23.8959 16.7916 23.25 16.7916H20.6667C19.9563 16.7916 19.3483 16.5388 18.8429 16.0334C18.3374 15.5279 18.0842 14.9195 18.0834 14.2083V12.9166H12.9167V10.3333C12.9167 9.62284 13.1699 9.01489 13.6762 8.50942C14.1825 8.00395 14.7905 7.75078 15.5 7.74992H16.7917C16.7917 7.25478 16.9265 6.81906 17.196 6.44275C17.4655 6.06645 17.7936 5.75946 18.1803 5.52179C17.7497 5.41416 17.314 5.32804 16.8731 5.26346C16.4322 5.19888 15.9745 5.16659 15.5 5.16659C12.6153 5.16659 10.1719 6.16763 8.16983 8.16971C6.16775 10.1718 5.16671 12.6152 5.16671 15.4999H11.625C13.0459 15.4999 14.2622 16.0058 15.274 17.0176C16.2858 18.0294 16.7917 19.2458 16.7917 20.6666V21.9583H12.9167V25.5103C13.3473 25.618 13.7727 25.6989 14.1929 25.7532C14.6131 25.8074 15.0488 25.8341 15.5 25.8333Z" fill="#2563EB"/>
</svg>
