<svg width="19" height="18" viewBox="0 0 19 18" fill="none" xmlns="http://www.w3.org/2000/svg">
<path d="M0.875 9C0.875 9.26522 0.980357 9.51957 1.16789 9.70711C1.35543 9.89464 1.60978 10 1.875 10H7.875C8.14022 10 8.39457 9.89464 8.58211 9.70711C8.76964 9.51957 8.875 9.26522 8.875 9V1C8.875 0.734784 8.76964 0.48043 8.58211 0.292893C8.39457 0.105357 8.14022 0 7.875 0H1.875C1.60978 0 1.35543 0.105357 1.16789 0.292893C0.980357 0.48043 0.875 0.734784 0.875 1V9ZM0.875 17C0.875 17.2652 0.980357 17.5196 1.16789 17.7071C1.35543 17.8946 1.60978 18 1.875 18H7.875C8.14022 18 8.39457 17.8946 8.58211 17.7071C8.76964 17.5196 8.875 17.2652 8.875 17V13C8.875 12.7348 8.76964 12.4804 8.58211 12.2929C8.39457 12.1054 8.14022 12 7.875 12H1.875C1.60978 12 1.35543 12.1054 1.16789 12.2929C0.980357 12.4804 0.875 12.7348 0.875 13V17ZM10.875 17C10.875 17.2652 10.9804 17.5196 11.1679 17.7071C11.3554 17.8946 11.6098 18 11.875 18H17.875C18.1402 18 18.3946 17.8946 18.5821 17.7071C18.7696 17.5196 18.875 17.2652 18.875 17V9C18.875 8.73478 18.7696 8.48043 18.5821 8.29289C18.3946 8.10536 18.1402 8 17.875 8H11.875C11.6098 8 11.3554 8.10536 11.1679 8.29289C10.9804 8.48043 10.875 8.73478 10.875 9V17ZM11.875 0C11.6098 0 11.3554 0.105357 11.1679 0.292893C10.9804 0.48043 10.875 0.734784 10.875 1V5C10.875 5.26522 10.9804 5.51957 11.1679 5.70711C11.3554 5.89464 11.6098 6 11.875 6H17.875C18.1402 6 18.3946 5.89464 18.5821 5.70711C18.7696 5.51957 18.875 5.26522 18.875 5V1C18.875 0.734784 18.7696 0.48043 18.5821 0.292893C18.3946 0.105357 18.1402 0 17.875 0H11.875Z" fill="#4B5563"/>
</svg>
