<svg width="24" height="24" viewBox="0 0 24 24" fill="none" xmlns="http://www.w3.org/2000/svg">
<g clip-path="url(#clip0_4558_1512)">
<path d="M22.9845 19.2937C23.661 20.4663 22.8118 21.9321 21.4606 21.9321H3.87221C2.51842 21.9321 1.67317 20.4641 2.34836 19.2937L11.1427 4.04577C11.8195 2.8726 13.5147 2.87472 14.1904 4.04577L22.9845 19.2937ZM12.6665 16.1412C11.7354 16.1412 10.9806 16.8961 10.9806 17.8272C10.9806 18.7583 11.7354 19.5131 12.6665 19.5131C13.5977 19.5131 14.3525 18.7583 14.3525 17.8272C14.3525 16.8961 13.5977 16.1412 12.6665 16.1412ZM11.0659 10.0811L11.3377 15.0657C11.3505 15.2989 11.5433 15.4815 11.7769 15.4815H13.5562C13.7897 15.4815 13.9826 15.2989 13.9953 15.0657L14.2672 10.0811C14.2809 9.82915 14.0803 9.6173 13.828 9.6173H11.505C11.2527 9.6173 11.0521 9.82915 11.0659 10.0811Z" fill="#EAC645"/>
</g>
<defs>
<clipPath id="clip0_4558_1512">
<rect width="21.1111" height="18.7654" fill="white" transform="translate(2.11121 3.16669)"/>
</clipPath>
</defs>
</svg>
