<svg width="22" height="25" viewBox="0 0 22 25" fill="none" xmlns="http://www.w3.org/2000/svg">
<path d="M10.8001 3.5C11.0295 3.50028 11.2501 3.59788 11.4169 3.77285C11.5837 3.94782 11.6841 4.18695 11.6976 4.44139C11.711 4.69584 11.6365 4.94638 11.4893 5.14183C11.342 5.33729 11.1332 5.4629 10.9054 5.493L10.8001 5.5H6.3001C6.07966 5.50003 5.86689 5.58996 5.70216 5.75272C5.53743 5.91547 5.43219 6.13975 5.4064 6.383L5.4001 6.5V18.5C5.40013 18.7449 5.48106 18.9813 5.62754 19.1644C5.77402 19.3474 5.97587 19.4643 6.1948 19.493L6.3001 19.5H10.3501C10.5795 19.5003 10.8001 19.5979 10.9669 19.7728C11.1337 19.9478 11.2341 20.187 11.2476 20.4414C11.261 20.6958 11.1865 20.9464 11.0393 21.1418C10.892 21.3373 10.6832 21.4629 10.4554 21.493L10.3501 21.5H6.3001C5.61141 21.5 4.94873 21.2077 4.44766 20.6827C3.94659 20.1578 3.645 19.4399 3.6046 18.676L3.6001 18.5V6.5C3.60006 5.73479 3.86319 4.99849 4.33565 4.44174C4.80812 3.88499 5.45419 3.54989 6.1417 3.505L6.3001 3.5H10.8001ZM15.9364 8.964L18.4816 11.793C18.6503 11.9805 18.7451 12.2348 18.7451 12.5C18.7451 12.7652 18.6503 13.0195 18.4816 13.207L15.9364 16.036C15.7675 16.2235 15.5385 16.3288 15.2998 16.3287C15.061 16.3286 14.8321 16.2231 14.6633 16.0355C14.4946 15.8479 14.3998 15.5934 14.3999 15.3281C14.4 15.0629 14.4949 14.8085 14.6638 14.621L15.6727 13.5H10.8001C10.5614 13.5 10.3325 13.3946 10.1637 13.2071C9.99492 13.0196 9.9001 12.7652 9.9001 12.5C9.9001 12.2348 9.99492 11.9804 10.1637 11.7929C10.3325 11.6054 10.5614 11.5 10.8001 11.5H15.6727L14.6638 10.379C14.4949 10.1915 14.4 9.93712 14.3999 9.67185C14.3998 9.40658 14.4946 9.15214 14.6633 8.9645C14.8321 8.77686 15.061 8.67139 15.2998 8.6713C15.5385 8.6712 15.7675 8.77649 15.9364 8.964Z" fill="#2563EB"/>
</svg>
