<svg width="24" height="25" viewBox="0 0 24 25" fill="none" xmlns="http://www.w3.org/2000/svg">
<path fill-rule="evenodd" clip-rule="evenodd" d="M8 3.5C5.331 3.5 2.774 5.758 3.525 8.706C4.28264 11.6631 5.82119 14.3622 7.97961 16.5208C10.138 18.6794 12.837 20.2181 15.794 20.976C18.742 21.725 21 19.168 21 16.5V15.5C21 14.373 20.099 13.555 19.1 13.456C18.2811 13.3745 17.4773 13.181 16.711 12.881C16.53 12.8099 16.3322 12.7931 16.1418 12.8327C15.9514 12.8723 15.7766 12.9666 15.639 13.104L14.636 14.106C12.8582 13.1098 11.3902 11.6418 10.394 9.864L11.396 8.86C11.5334 8.72235 11.6277 8.54763 11.6673 8.35723C11.7069 8.16683 11.6901 7.96902 11.619 7.788C11.3189 7.02138 11.1255 6.21722 11.044 5.398C10.945 4.402 10.127 3.5 9 3.5H8Z" fill="#2563EB"/>
</svg>
