<svg width="24" height="25" viewBox="0 0 24 25" fill="none" xmlns="http://www.w3.org/2000/svg">
<path d="M12 3.4999L12.492 2.3509C12.3365 2.28433 12.1691 2.25 12 2.25C11.8309 2.25 11.6635 2.28433 11.508 2.3509L12 3.4999ZM12 21.4999L11.38 22.5849C11.764 22.8049 12.236 22.8049 12.62 22.5849L12 21.4999ZM11.508 2.3509L5.114 5.0909L6.098 7.3889L12.492 4.6489L11.508 2.3509ZM3.75 7.1599V14.0199H6.25V7.1599H3.75ZM7.403 20.3129L11.38 22.5859L12.62 20.4159L8.643 18.1429L7.403 20.3129ZM12.62 22.5859L16.597 20.3139L15.357 18.1439L11.38 20.4159L12.62 22.5859ZM20.25 14.0189V7.1599H17.75V14.0199L20.25 14.0189ZM18.886 5.0919L12.492 2.3519L11.508 4.6499L17.901 7.3899L18.886 5.0919ZM20.25 7.1599C20.25 6.2599 19.714 5.4469 18.886 5.0919L17.901 7.3899C17.8561 7.37053 17.8179 7.33842 17.791 7.29754C17.7642 7.25666 17.7499 7.2088 17.75 7.1599H20.25ZM16.597 20.3139C17.7068 19.6798 18.6291 18.7635 19.2707 17.658C19.9122 16.5525 20.25 15.2971 20.25 14.0189H17.75C17.75 14.8562 17.5287 15.6787 17.1084 16.4029C16.6882 17.1271 16.084 17.7284 15.357 18.1439L16.597 20.3139ZM3.75 14.0179C3.74996 15.2961 4.08782 16.5515 4.72935 17.657C5.37087 18.7625 6.29325 19.6788 7.403 20.3129L8.643 18.1429C7.91588 17.7273 7.31157 17.1269 6.89132 16.4025C6.47107 15.678 6.24982 14.8554 6.25 14.0179H3.75ZM5.114 5.0909C4.70906 5.26437 4.36396 5.55289 4.12149 5.92069C3.87901 6.28849 3.74985 6.71937 3.75 7.1599H6.25C6.25 7.2599 6.19 7.3489 6.098 7.3889L5.114 5.0909Z" fill="#2563EB"/>
</svg>
