<svg width="24" height="25" viewBox="0 0 24 25" fill="none" xmlns="http://www.w3.org/2000/svg">
<path d="M20.9578 4.54062C18.7641 2.06562 15.5719 0.5 12 0.5C5.37188 0.5 0 5.87188 0 12.5H3C3 7.52656 7.02656 3.5 12 3.5C14.7422 3.5 17.175 4.74219 18.8203 6.67813L15.9984 9.5H24V1.49844L20.9578 4.54062ZM12 21.5C9.25781 21.5 6.825 20.2578 5.17969 18.3219L8.00156 15.5H0V23.5016L3.04219 20.4594C5.23594 22.9344 8.43281 24.5 12 24.5C18.6281 24.5 24 19.1281 24 12.5H21C21 17.4734 16.9734 21.5 12 21.5Z" fill="#2563EB"/>
</svg>
