<svg width="20" height="20" viewBox="0 0 20 20" fill="none" xmlns="http://www.w3.org/2000/svg">
<g clip-path="url(#clip0_658_1092)">
<path fill-rule="evenodd" clip-rule="evenodd" d="M2.85702 8.57143C2.85702 7.05591 3.45906 5.60246 4.53069 4.53082C5.60233 3.45918 7.05578 2.85714 8.5713 2.85714C10.0868 2.85714 11.5403 3.45918 12.6119 4.53082C13.6836 5.60246 14.2856 7.05591 14.2856 8.57143C14.2856 10.087 13.6836 11.5404 12.6119 12.612C11.5403 13.6837 10.0868 14.2857 8.5713 14.2857C7.05578 14.2857 5.60233 13.6837 4.53069 12.612C3.45906 11.5404 2.85702 10.087 2.85702 8.57143ZM8.5713 1.62088e-07C7.22231 -0.000171985 5.89232 0.318061 4.68951 0.928816C3.48669 1.53957 2.44501 2.4256 1.6492 3.51485C0.853379 4.6041 0.325891 5.8658 0.109635 7.19735C-0.10662 8.5289 -0.00553855 9.89269 0.40466 11.1778C0.814859 12.4629 1.52259 13.6331 2.4703 14.5931C3.418 15.5531 4.57892 16.2759 5.85863 16.7027C7.13835 17.1294 8.50072 17.2481 9.83495 17.049C11.1692 16.85 12.4376 16.3388 13.537 15.5571L17.5613 19.5814C17.8307 19.8417 18.1916 19.9856 18.5662 19.9824C18.9407 19.9791 19.299 19.8289 19.5639 19.564C19.8288 19.2992 19.979 18.9409 19.9823 18.5663C19.9855 18.1917 19.8415 17.8309 19.5813 17.5614L15.5584 13.5386C16.4703 12.2562 17.0115 10.7476 17.1229 9.17811C17.2343 7.60858 16.9115 6.03867 16.1898 4.64043C15.4682 3.24218 14.3756 2.06955 13.0318 1.25103C11.688 0.432515 10.1448 -0.000305787 8.5713 1.62088e-07Z" fill="#2563EB"/>
</g>
<defs>
<clipPath id="clip0_658_1092">
<rect width="20" height="20" fill="white"/>
</clipPath>
</defs>
</svg>
