<svg width="163" height="163" viewBox="0 0 163 163" fill="none" xmlns="http://www.w3.org/2000/svg">
<rect width="163" height="163" rx="81.5" fill="#97D14C"/>
<path fill-rule="evenodd" clip-rule="evenodd" d="M116.002 56.2406C117.033 57.272 117.612 58.6707 117.612 60.1291C117.612 61.5875 117.033 62.9862 116.002 64.0176L74.7777 105.242C74.2329 105.787 73.5861 106.219 72.8743 106.514C72.1624 106.809 71.3994 106.961 70.6289 106.961C69.8584 106.961 69.0954 106.809 68.3835 106.514C67.6716 106.219 67.0248 105.787 66.4801 105.242L45.9981 84.7636C45.4727 84.2562 45.0537 83.6493 44.7655 82.9783C44.4772 82.3073 44.3255 81.5856 44.3192 80.8553C44.3128 80.125 44.452 79.4008 44.7285 78.7248C45.0051 78.0489 45.4135 77.4348 45.9299 76.9184C46.4463 76.402 47.0604 75.9936 47.7363 75.7171C48.4122 75.4405 49.1365 75.3013 49.8668 75.3077C50.597 75.314 51.3188 75.4658 51.9898 75.754C52.6608 76.0423 53.2677 76.4613 53.7751 76.9866L70.6271 93.8386L108.221 56.2406C108.732 55.7295 109.339 55.324 110.006 55.0474C110.674 54.7708 111.389 54.6284 112.112 54.6284C112.834 54.6284 113.55 54.7708 114.217 55.0474C114.885 55.324 115.491 55.7295 116.002 56.2406Z" fill="white"/>
</svg>
