<svg width="19" height="20" viewBox="0 0 19 20" fill="none" xmlns="http://www.w3.org/2000/svg">
<path fill-rule="evenodd" clip-rule="evenodd" d="M12.8819 8.632C12.8819 9.47185 12.5483 10.2773 11.9544 10.8712C11.3606 11.465 10.5551 11.7987 9.71525 11.7987C8.8754 11.7987 8.06994 11.465 7.47608 10.8712C6.88221 10.2773 6.54858 9.47185 6.54858 8.632C6.54858 7.79215 6.88221 6.98669 7.47608 6.39283C8.06994 5.79896 8.8754 5.46533 9.71525 5.46533C10.5551 5.46533 11.3606 5.79896 11.9544 6.39283C12.5483 6.98669 12.8819 7.79215 12.8819 8.632ZM11.2986 8.632C11.2986 9.05192 11.1318 9.45465 10.8348 9.75158C10.5379 10.0485 10.1352 10.2153 9.71525 10.2153C9.29532 10.2153 8.8926 10.0485 8.59566 9.75158C8.29873 9.45465 8.13192 9.05192 8.13192 8.632C8.13192 8.21207 8.29873 7.80935 8.59566 7.51241C8.8926 7.21548 9.29532 7.04867 9.71525 7.04867C10.1352 7.04867 10.5379 7.21548 10.8348 7.51241C11.1318 7.80935 11.2986 8.21207 11.2986 8.632Z" fill="#2563EB"/>
<path fill-rule="evenodd" clip-rule="evenodd" d="M4.58692 13.5767C3.56633 12.6049 2.85682 11.3524 2.54809 9.97745C2.23936 8.60248 2.3453 7.16685 2.85249 5.85209C3.35968 4.53733 4.24536 3.4025 5.39752 2.59111C6.54968 1.77971 7.91657 1.32819 9.32535 1.29365C10.7341 1.2591 12.1215 1.64308 13.312 2.39704C14.5026 3.15099 15.4428 4.24105 16.0138 5.52937C16.5849 6.81769 16.761 8.2464 16.5201 9.63485C16.2791 11.0233 15.6318 12.3091 14.6601 13.3297L9.747 18.4897L4.58692 13.5767ZM13.5138 12.238L9.69238 16.2517L5.67863 12.4303C4.88488 11.6745 4.33306 10.7004 4.09296 9.63098C3.85285 8.56158 3.93525 7.44501 4.32972 6.42244C4.72419 5.39988 5.41302 4.51725 6.30911 3.88616C7.2052 3.25507 8.26831 2.90387 9.36399 2.87697C10.4597 2.85007 11.5387 3.14867 12.4647 3.73502C13.3907 4.32137 14.122 5.16913 14.5662 6.17111C15.0104 7.17308 15.1475 8.28427 14.9601 9.36416C14.7728 10.444 14.2695 11.4441 13.5138 12.238Z" fill="#2563EB"/>
</svg>
