<svg width="31" height="31" viewBox="0 0 31 31" fill="none" xmlns="http://www.w3.org/2000/svg">
<path fill-rule="evenodd" clip-rule="evenodd" d="M-1.90735e-06 15.5C-1.90735e-06 24.0606 6.93935 31 15.5 31C24.0606 31 31 24.0606 31 15.5C31 6.93935 24.0606 0 15.5 0C6.93935 0 -1.90735e-06 6.93935 -1.90735e-06 15.5ZM10.8965 10.0285C10.7901 9.91429 10.6617 9.82268 10.5191 9.75914C10.3765 9.6956 10.2226 9.66144 10.0665 9.65868C9.91042 9.65593 9.75538 9.68464 9.61062 9.74311C9.46587 9.80158 9.33438 9.8886 9.22399 9.99899C9.1136 10.1094 9.02658 10.2409 8.96811 10.3856C8.90964 10.5304 8.88093 10.6854 8.88368 10.8415C8.88644 10.9976 8.9206 11.1515 8.98414 11.2941C9.04768 11.4367 9.13928 11.5651 9.2535 11.6715L13.082 15.5L9.2535 19.3285C9.13928 19.4349 9.04768 19.5633 8.98414 19.7059C8.9206 19.8485 8.88644 20.0024 8.88368 20.1585C8.88093 20.3146 8.90964 20.4696 8.96811 20.6144C9.02658 20.7591 9.1136 20.8906 9.22399 21.001C9.33438 21.1114 9.46587 21.1984 9.61062 21.2569C9.75538 21.3154 9.91042 21.3441 10.0665 21.3413C10.2226 21.3386 10.3765 21.3044 10.5191 21.2409C10.6617 21.1773 10.7901 21.0857 10.8965 20.9715L15.5465 16.3215C15.7642 16.1035 15.8865 15.8081 15.8865 15.5C15.8865 15.1919 15.7642 14.8965 15.5465 14.6785L10.8965 10.0285ZM15.4535 10.0285C15.6715 9.8108 15.9669 9.68852 16.275 9.68852C16.5831 9.68852 16.8785 9.8108 17.0965 10.0285L21.7465 14.6785C21.9642 14.8965 22.0865 15.1919 22.0865 15.5C22.0865 15.8081 21.9642 16.1035 21.7465 16.3215L17.0965 20.9715C16.9901 21.0857 16.8617 21.1773 16.7191 21.2409C16.5765 21.3044 16.4226 21.3386 16.2665 21.3413C16.1104 21.3441 15.9554 21.3154 15.8106 21.2569C15.6659 21.1984 15.5344 21.1114 15.424 21.001C15.3136 20.8906 15.2266 20.7591 15.1681 20.6144C15.1096 20.4696 15.0809 20.3146 15.0837 20.1585C15.0864 20.0024 15.1206 19.8485 15.1841 19.7059C15.2477 19.5633 15.3393 19.4349 15.4535 19.3285L19.282 15.5L15.4535 11.6715C15.2358 11.4535 15.1135 11.1581 15.1135 10.85C15.1135 10.5419 15.2358 10.2465 15.4535 10.0285Z" fill="#16DB30"/>
</svg>
